<svg xmlns="http://www.w3.org/2000/svg" xmlns:xlink="http://www.w3.org/1999/xlink" xmlns:lucid="lucid" width="1708" height="1180.42"><g transform="translate(-40 -160)" lucid:page-tab-id="0_0"><path d="M1666.2 1041.2c34.13 0 61.8 26.6 61.8 59.4s-27.67 59.4-61.8 59.4h-185.37c-34.13 0-61.8-26.6-61.8-59.4s27.67-59.4 61.8-59.4z" stroke="#000" stroke-width="2" fill="#c7e8ac"/><use xlink:href="#a" transform="matrix(1,0,0,1,1424.0344827586205,1046.212121212121) translate(59.425925925925924 65.16666666666667)"/><path d="M1148.7 744.24h308.96v178.18H1148.7z" stroke="#000" stroke-width="2" fill="#c7e8ac"/><use xlink:href="#b" transform="matrix(1,0,0,1,1153.6896551724146,749.2424242424242) translate(57.796296296296305 63.16666666666667)"/><use xlink:href="#c" transform="matrix(1,0,0,1,1153.6896551724146,749.2424242424242) translate(71.12962962962962 127.16666666666667)"/><path d="M878.34 476.97h308.97v178.18H878.35z" stroke="#000" stroke-width="2" fill="#c7e8ac"/><use xlink:href="#d" transform="matrix(1,0,0,1,883.3448275862071,481.969696969697) translate(53.425925925925895 95.16666666666667)"/><path d="M608 180h347.6v178.18H608z" stroke="#000" stroke-width="2" fill="#c7e8ac"/><use xlink:href="#e" transform="matrix(1,0,0,1,613.0000000000002,185) translate(-1.1481481481481524 95.16666666666667)"/><path d="M782.8 565.06h76.04v2H780.8v-91.14h2zm0-153.14h-2v-51.74h2z"/><path d="M782.8 360.2h-2v-1.02h2zM874.1 566.06l-14.26 4.64v-9.27z"/><path d="M877.34 566.06l-18.5 6v-12zm-16.5 3.26l10.03-3.26-10.03-3.26z"/><use xlink:href="#f" transform="matrix(1,0,0,1,724.2375478927205,411.92115874314345) translate(0 42.66666666666667)"/><path d="M1033.83 832.33h95.36v2h-97.37v-59.45h2zm0-121.45h-2v-53.73h2z"/><path d="M1033.83 657.18h-2v-1.03h2zM1144.45 833.33l-14.26 4.64v-9.27z"/><path d="M1147.7 833.33l-18.5 6.02v-12.03zm-16.5 3.26l10.02-3.27-10.03-3.26z"/><use xlink:href="#g" transform="matrix(1,0,0,1,960.4572158365263,710.8817848044713) translate(0 42.66666666666667)"/><path d="M1303.17 924.42v176.2h96.36" stroke="#000" stroke-width="2" fill="none"/><path d="M1304.17 924.45h-2v-1.03h2z"/><path d="M1414.8 1100.6l-14.27 4.64v-9.27z" stroke="#000" stroke-width="2"/><path d="M1567.57 1039.2l-.6-29.65-1.47-23.7-2-19.1-2.32-15.82-2.53-13.3-2.65-11.33-2.72-9.76-2.76-8.5-2.77-7.46-2.77-6.6-2.76-5.86-2.74-5.26-2.74-4.74-2.7-4.28-2.72-3.9-2.7-3.55-2.7-3.27-2.7-3-2.7-2.75-2.7-2.55-2.73-2.35-2.76-2.2-2.8-2-2.8-1.9-2.9-1.73-2.92-1.6-3-1.5-3.08-1.37-3.17-1.26-3.27-1.14-3.4-1.02-3.52-.9-3.7-.8-.72-.1" stroke="#000" stroke-width="2" fill="none"/><path d="M1568.6 1040.2h-2l-.03-1 2-.04z"/><path d="M1461.88 833.62l14.62-3.38-.8 9.24z" stroke="#000" stroke-width="2"/><path d="M1573.5 1039.2l-.54-25.56-1.65-26.33-2.72-25.9-3.75-25.4-4.7-24.72-5.62-23.93-6.43-23.06-7.18-22.1-7.85-21.12-8.44-20.07-8.94-19.02-9.4-18-9.8-16.94-10.1-15.96-10.42-14.97-10.65-14.04-10.9-13.14-11.05-12.3-11.24-11.47-11.38-10.7-11.55-9.97-11.7-9.27-11.83-8.6-12-7.96-12.14-7.35-12.3-6.78-12.5-6.2-12.7-5.66-12.93-5.12-13.16-4.58-13.42-4.05-13.73-3.52-14.05-3-14.42-2.42-14.83-1.87-15.28-1.3-5.37-.22" stroke="#000" stroke-width="2" fill="none"/><path d="M1574.52 1040.2h-2l-.02-1 2-.04z"/><path d="M1191.55 566.15l14.4-4.23-.27 9.27z" stroke="#000" stroke-width="2"/><path d="M995.5 269.3l24.9 2.1 24.18 3.04 23.52 3.98 22.93 4.87 22.4 5.74 21.9 6.6 21.46 7.5 21.06 8.33 20.72 9.22 20.4 10.1 20.08 11.06 19.8 12 19.57 13 19.3 14.02L1316.8 396l18.83 16.25 18.58 17.45 18.33 18.7 18.03 20.05 17.73 21.42 17.35 22.9 16.96 24.4 16.5 25.98 15.94 27.62 15.3 29.3 14.58 30.97 13.74 32.68 12.77 34.36 11.7 35.98 10.46 37.5 9.12 38.95 7.66 40.22 6.1 41.3 4.43 42.16 2.7 42.8.9 42.2-2 .04-.9-42.15-2.68-42.72-4.42-42.1-6.1-41.2-7.64-40.12-9.1-38.86-10.46-37.44-11.66-35.9-12.74-34.27-13.7-32.6-14.54-30.9-15.27-29.23-15.9-27.54-16.46-25.93-16.9-24.34-17.32-22.82-17.67-21.35-17.98-19.97-18.26-18.65-18.5-17.4-18.77-16.2-19-15.05-19.24-13.98-19.5-12.95-19.74-11.96-20.02-11-20.3-10.1-20.65-9.2-21-8.3-21.4-7.45-21.82-6.58-22.3-5.73-22.85-4.85-23.44-3.98-24.1-3.04-24.83-2.08-20.33-.85.08-2z"/><path d="M1584.5 1040.2h-2v-1l2-.05zM974 274.07l-14.18-4.92 14.36-4.35z"/><path d="M974.97 275.46l-18.38-6.37 18.6-5.66zm-11.9-6.24l9.95 3.45.13-6.52z"/><path d="M60 481.28h380v195.15H60z" stroke="#000" stroke-width="2" fill="#ffc374"/><use xlink:href="#h" transform="matrix(1,0,0,1,65,486.27907227291576) translate(88.44444444444446 77)"/><use xlink:href="#i" transform="matrix(1,0,0,1,65,486.27907227291576) translate(168.33333333333334 77)"/><use xlink:href="#j" transform="matrix(1,0,0,1,65,486.27907227291576) translate(22.888888888888857 125)"/><use xlink:href="#k" transform="matrix(1,0,0,1,65,486.27907227291576) translate(213.88888888888889 125)"/><path d="M250 678.43V793.5h30.5" stroke="#000" stroke-width="2" fill="none"/><path d="M251 678.46h-2v-1.03h2z"/><path d="M295.76 793.5l-14.26 4.65v-9.27z" stroke="#000" stroke-width="2"/><path d="M558.16 715.3c35.65 0 64.54 35 64.54 78.2s-28.9 78.23-64.54 78.23H364.54c-35.64 0-64.54-35.02-64.54-78.22 0-43.2 28.9-78.2 64.54-78.2z" stroke="#000" stroke-width="2" fill="#ccc"/><use xlink:href="#l" transform="matrix(1,0,0,1,305,720.295604969966) translate(62.16666666666666 57.5)"/><use xlink:href="#m" transform="matrix(1,0,0,1,305,720.295604969966) translate(10 105.5)"/><use xlink:href="#k" transform="matrix(1,0,0,1,305,720.295604969966) translate(169.7777777777778 105.5)"/><path d="M837.26 1160c65.35 0 118.33 35.9 118.33 80.2 0 44.3-53 80.22-118.34 80.22H482.3c-65.36 0-118.34-35.9-118.34-80.2 0-44.3 52.98-80.22 118.33-80.22z" stroke="#000" stroke-width="2" fill="#c7e8ac"/><use xlink:href="#n" transform="matrix(1,0,0,1,368.9629005238767,1164.9999999999998) translate(18.16666666666663 59.5)"/><use xlink:href="#o" transform="matrix(1,0,0,1,368.9629005238767,1164.9999999999998) translate(271.05555555555554 59.5)"/><use xlink:href="#p" transform="matrix(1,0,0,1,368.9629005238767,1164.9999999999998) translate(426.27777777777777 59.5)"/><use xlink:href="#q" transform="matrix(1,0,0,1,368.9629005238767,1164.9999999999998) translate(253.27777777777777 107.5)"/><path d="M217.84 678.43v561.78h126.62" stroke="#000" stroke-width="2" fill="none"/><path d="M218.84 678.46h-2v-1.03h2z"/><path d="M359.73 1240.2l-14.27 4.64v-9.27z" stroke="#000" stroke-width="2"/><g fill="none"><path d="M492 356.04l62.58-49.84 736.5 924.8-62.6 49.82z"/><path d="M1291.07 1231c-31.93 25.4-78.4 20.14-103.83-11.78l-276.2-346.8c-25.4-31.92-71.9-37.2-103.82-11.77 31.93-25.42 37.2-71.9 11.77-103.83l-276.2-346.8c-25.4-31.9-20.14-78.4 11.78-103.82" stroke="#000" stroke-width="2"/></g><path d="M957.3 1239.5l1.05-1.07 1.6-1.74 1.43-1.74 1.3-1.7 1.2-1.7 1.1-1.7.98-1.7.9-1.7.82-1.7.74-1.73.66-1.75.6-1.8.52-1.8.45-1.9.37-1.9.3-2 .24-2.07.15-2.15.07-2.26-.04-2.38-.15-2.5-.26-2.7-.4-2.84-.58-3.08-.76-3.34-1-3.65-1.28-4-1.64-4.5-2.1-5.03-2.67-5.76-3.47-6.7-4.54-7.95-6.15-9.77-8.65-12.57-13.36-17.75-29.1-35.27-62.7-74.4-13.7-18.22L810.3 970l-6.35-10.13-4.73-8.3-3.6-6.98-2.8-6.05-2.2-5.3-1.73-4.7-1.36-4.24-1.05-3.84-.82-3.53-.6-3.26-.43-3.03-.3-2.84-.14-2.67-.03-2.53.06-2.4.16-2.3.23-2.22.33-2.13.4-2.06.5-2.02.55-1.96.64-1.92.72-1.88.8-1.87.87-1.84.97-1.82 1.07-1.83 1.18-1.83 1.3-1.83 1.4-1.86 1.57-1.87 1.73-1.9 1.9-1.92 2.13-1.97 2.36-2.02" stroke="#000" stroke-width="2" fill="none"/><path d="M958.02 1240.18l-1.46 1.48.03-1.44-.02-.43-.02-.98.04-.05zM808.1 858.58l-2.27 1.95.63.77-.8.65-1.26-1.56 3.14-2.53z"/><path d="M628.83 910.6c26.07 0 47.2 11.05 47.2 24.7 0 13.64-21.13 24.7-47.2 24.7H487.2c-26.06 0-47.2-11.06-47.2-24.7 0-13.65 21.14-24.7 47.2-24.7z" stroke="#000" stroke-width="2" fill="#ccc"/><use xlink:href="#r" transform="matrix(1,0,0,1,445,915.5912099399318) translate(72.44444444444444 32)"/><path d="M628.83 985.9c26.07 0 47.2 11.05 47.2 24.7 0 13.64-21.13 24.7-47.2 24.7H487.2c-26.06 0-47.2-11.06-47.2-24.7 0-13.65 21.14-24.7 47.2-24.7z" stroke="#000" stroke-width="2" fill="#ccc"/><g><use xlink:href="#s" transform="matrix(1,0,0,1,445.00000000000006,990.8868149098976) translate(72.44444444444444 32)"/></g><path d="M402.72 873.73v61.57H438" stroke="#000" stroke-width="2" fill="none"/><path d="M403.72 873.75h-2v-1.02h2zM439 935.3l.04 1h-1.07v-2h1.08z"/><path d="M402.72 873.73v136.86H438" stroke="#000" stroke-width="2" fill="none"/><path d="M403.72 873.75h-2v-1.02h2zM439 1010.6l.04 1h-1.07v-2h1.08z"/><defs><path fill="#23373b" d="M212-179c-10-28-35-45-73-45-59 0-87 40-87 99 0 60 29 101 89 101 43 0 62-24 78-52l27 14C228-24 195 4 139 4 59 4 22-46 18-125c-6-104 99-153 187-111 19 9 31 26 39 46" id="t"/><path fill="#23373b" d="M100-194c62-1 85 37 85 99 1 63-27 99-86 99S16-35 15-95c0-66 28-99 85-99zM99-20c44 1 53-31 53-75 0-43-8-75-51-75s-53 32-53 75 10 74 51 75" id="u"/><path fill="#23373b" d="M114-163C36-179 61-72 57 0H25l-1-190h30c1 12-1 29 2 39 6-27 23-49 58-41v29" id="v"/><path fill="#23373b" d="M59-47c-2 24 18 29 38 22v24C64 9 27 4 27-40v-127H5v-23h24l9-43h21v43h35v23H59v120" id="w"/><path fill="#23373b" d="M24-231v-30h32v30H24zM24 0v-190h32V0H24" id="x"/><path fill="#23373b" d="M135-143c-3-34-86-38-87 0 15 53 115 12 119 90S17 21 10-45l28-5c4 36 97 45 98 0-10-56-113-15-118-90-4-57 82-63 122-42 12 7 21 19 24 35" id="y"/><path fill="#23373b" d="M24 0v-261h32V0H24" id="z"/><g id="a"><use transform="matrix(0.14814814814814817,0,0,0.14814814814814817,0,0)" xlink:href="#t"/><use transform="matrix(0.14814814814814817,0,0,0.14814814814814817,38.370370370370374,0)" xlink:href="#u"/><use transform="matrix(0.14814814814814817,0,0,0.14814814814814817,68,0)" xlink:href="#v"/><use transform="matrix(0.14814814814814817,0,0,0.14814814814814817,85.62962962962965,0)" xlink:href="#w"/><use transform="matrix(0.14814814814814817,0,0,0.14814814814814817,100.44444444444446,0)" xlink:href="#x"/><use transform="matrix(0.14814814814814817,0,0,0.14814814814814817,112.14814814814817,0)" xlink:href="#y"/><use transform="matrix(0.14814814814814817,0,0,0.14814814814814817,138.81481481481484,0)" xlink:href="#u"/><use transform="matrix(0.14814814814814817,0,0,0.14814814814814817,168.44444444444446,0)" xlink:href="#z"/></g><path fill="#23373b" d="M205 0l-28-72H64L36 0H1l101-248h38L239 0h-34zm-38-99l-47-123c-12 45-31 82-46 123h93" id="A"/><path fill="#23373b" d="M85-194c31 0 48 13 60 33l-1-100h32l1 261h-30c-2-10 0-23-3-31C134-8 116 4 85 4 32 4 16-35 15-94c0-66 23-100 70-100zm9 24c-40 0-46 34-46 75 0 40 6 74 45 74 42 0 51-32 51-76 0-42-9-74-50-73" id="B"/><path fill="#23373b" d="M100-194c63 0 86 42 84 106H49c0 40 14 67 53 68 26 1 43-12 49-29l28 8c-11 28-37 45-77 45C44 4 14-33 15-96c1-61 26-98 85-98zm52 81c6-60-76-77-97-28-3 7-6 17-6 28h103" id="C"/><path fill="#23373b" d="M117-194c89-4 53 116 60 194h-32v-121c0-31-8-49-39-48C34-167 62-67 57 0H25l-1-190h30c1 10-1 24 2 32 11-22 29-35 61-36" id="D"/><path fill="#23373b" d="M141-36C126-15 110 5 73 4 37 3 15-17 15-53c-1-64 63-63 125-63 3-35-9-54-41-54-24 1-41 7-42 31l-33-3c5-37 33-52 76-52 45 0 72 20 72 64v82c-1 20 7 32 28 27v20c-31 9-61-2-59-35zM48-53c0 20 12 33 32 33 41-3 63-29 60-74-43 2-92-5-92 41" id="E"/><g id="b"><use transform="matrix(0.14814814814814817,0,0,0.14814814814814817,0,0)" xlink:href="#A"/><use transform="matrix(0.14814814814814817,0,0,0.14814814814814817,35.55555555555556,0)" xlink:href="#B"/><use transform="matrix(0.14814814814814817,0,0,0.14814814814814817,65.18518518518519,0)" xlink:href="#v"/><use transform="matrix(0.14814814814814817,0,0,0.14814814814814817,82.81481481481482,0)" xlink:href="#C"/><use transform="matrix(0.14814814814814817,0,0,0.14814814814814817,112.44444444444446,0)" xlink:href="#D"/><use transform="matrix(0.14814814814814817,0,0,0.14814814814814817,142.07407407407408,0)" xlink:href="#E"/><use transform="matrix(0.14814814814814817,0,0,0.14814814814814817,171.7037037037037,0)" xlink:href="#z"/></g><path fill="#23373b" d="M141 0L90-78 38 0H4l68-98-65-92h35l48 74 47-74h35l-64 92 68 98h-35" id="F"/><g id="c"><use transform="matrix(0.14814814814814817,0,0,0.14814814814814817,0,0)" xlink:href="#t"/><use transform="matrix(0.14814814814814817,0,0,0.14814814814814817,38.370370370370374,0)" xlink:href="#u"/><use transform="matrix(0.14814814814814817,0,0,0.14814814814814817,68,0)" xlink:href="#v"/><use transform="matrix(0.14814814814814817,0,0,0.14814814814814817,85.62962962962965,0)" xlink:href="#w"/><use transform="matrix(0.14814814814814817,0,0,0.14814814814814817,100.44444444444446,0)" xlink:href="#C"/><use transform="matrix(0.14814814814814817,0,0,0.14814814814814817,130.07407407407408,0)" xlink:href="#F"/></g><path fill="#23373b" d="M30-248c87 1 191-15 191 75 0 78-77 80-158 76V0H30v-248zm33 125c57 0 124 11 124-50 0-59-68-47-124-48v98" id="G"/><path fill="#23373b" d="M84 4C-5 8 30-112 23-190h32v120c0 31 7 50 39 49 72-2 45-101 50-169h31l1 190h-30c-1-10 1-25-2-33-11 22-28 36-60 37" id="H"/><path fill="#23373b" d="M179-190L93 31C79 59 56 82 12 73V49c39 6 53-20 64-50L1-190h34L92-34l54-156h33" id="I"/><g id="d"><use transform="matrix(0.14814814814814817,0,0,0.14814814814814817,0,0)" xlink:href="#G"/><use transform="matrix(0.14814814814814817,0,0,0.14814814814814817,35.55555555555556,0)" xlink:href="#x"/><use transform="matrix(0.14814814814814817,0,0,0.14814814814814817,47.25925925925927,0)" xlink:href="#w"/><use transform="matrix(0.14814814814814817,0,0,0.14814814814814817,62.07407407407408,0)" xlink:href="#H"/><use transform="matrix(0.14814814814814817,0,0,0.14814814814814817,91.70370370370371,0)" xlink:href="#x"/><use transform="matrix(0.14814814814814817,0,0,0.14814814814814817,103.40740740740743,0)" xlink:href="#w"/><use transform="matrix(0.14814814814814817,0,0,0.14814814814814817,118.22222222222226,0)" xlink:href="#E"/><use transform="matrix(0.14814814814814817,0,0,0.14814814814814817,147.8518518518519,0)" xlink:href="#v"/><use transform="matrix(0.14814814814814817,0,0,0.14814814814814817,165.48148148148152,0)" xlink:href="#I"/></g><path fill="#23373b" d="M197 0v-115H63V0H30v-248h33v105h134v-105h34V0h-34" id="J"/><path fill="#23373b" d="M115-194c55 1 70 41 70 98S169 2 115 4C84 4 66-9 55-30l1 105H24l-1-265h31l2 30c10-21 28-34 59-34zm-8 174c40 0 45-34 45-75s-6-73-45-74c-42 0-51 32-51 76 0 43 10 73 51 73" id="K"/><path fill="#23373b" d="M106-169C34-169 62-67 57 0H25v-261h32l-1 103c12-21 28-36 61-36 89 0 53 116 60 194h-32v-121c2-32-8-49-39-48" id="L"/><path fill="#23373b" d="M210-169c-67 3-38 105-44 169h-31v-121c0-29-5-50-35-48C34-165 62-65 56 0H25l-1-190h30c1 10-1 24 2 32 10-44 99-50 107 0 11-21 27-35 58-36 85-2 47 119 55 194h-31v-121c0-29-5-49-35-48" id="M"/><g id="e"><use transform="matrix(0.14814814814814817,0,0,0.14814814814814817,0,0)" xlink:href="#J"/><use transform="matrix(0.14814814814814817,0,0,0.14814814814814817,38.370370370370374,0)" xlink:href="#I"/><use transform="matrix(0.14814814814814817,0,0,0.14814814814814817,65.03703703703704,0)" xlink:href="#K"/><use transform="matrix(0.14814814814814817,0,0,0.14814814814814817,94.66666666666669,0)" xlink:href="#u"/><use transform="matrix(0.14814814814814817,0,0,0.14814814814814817,124.29629629629632,0)" xlink:href="#w"/><use transform="matrix(0.14814814814814817,0,0,0.14814814814814817,139.11111111111111,0)" xlink:href="#L"/><use transform="matrix(0.14814814814814817,0,0,0.14814814814814817,168.74074074074076,0)" xlink:href="#E"/><use transform="matrix(0.14814814814814817,0,0,0.14814814814814817,198.3703703703704,0)" xlink:href="#z"/><use transform="matrix(0.14814814814814817,0,0,0.14814814814814817,210.07407407407408,0)" xlink:href="#E"/><use transform="matrix(0.14814814814814817,0,0,0.14814814814814817,239.7037037037037,0)" xlink:href="#M"/><use transform="matrix(0.14814814814814817,0,0,0.14814814814814817,284,0)" xlink:href="#H"/><use transform="matrix(0.14814814814814817,0,0,0.14814814814814817,313.6296296296296,0)" xlink:href="#y"/></g><path fill="#23373b" d="M233-177c-1 41-23 64-60 70L243 0h-38l-65-103H63V0H30v-248c88 3 205-21 203 71zM63-129c60-2 137 13 137-47 0-61-80-42-137-45v92" id="N"/><g id="f"><use transform="matrix(0.14814814814814817,0,0,0.14814814814814817,0,0)" xlink:href="#t"/><use transform="matrix(0.14814814814814817,0,0,0.14814814814814817,38.370370370370374,0)" xlink:href="#N"/><use transform="matrix(0.14814814814814817,0,0,0.14814814814814817,76.74074074074075,0)" xlink:href="#J"/></g><path fill="#23373b" d="M127-220V0H93v-220H8v-28h204v28h-85" id="O"/><g id="g"><use transform="matrix(0.14814814814814817,0,0,0.14814814814814817,0,0)" xlink:href="#A"/><use transform="matrix(0.14814814814814817,0,0,0.14814814814814817,35.55555555555556,0)" xlink:href="#t"/><use transform="matrix(0.14814814814814817,0,0,0.14814814814814817,73.92592592592592,0)" xlink:href="#O"/><use transform="matrix(0.14814814814814817,0,0,0.14814814814814817,106.37037037037038,0)" xlink:href="#J"/></g><g id="h"><use transform="matrix(0.1111111111111111,0,0,0.1111111111111111,0,0)" xlink:href="#O"/><use transform="matrix(0.1111111111111111,0,0,0.1111111111111111,24.333333333333332,0)" xlink:href="#L"/><use transform="matrix(0.1111111111111111,0,0,0.1111111111111111,46.55555555555556,0)" xlink:href="#C"/></g><path fill="#23373b" d="M185-189c-5-48-123-54-124 2 14 75 158 14 163 119 3 78-121 87-175 55-17-10-28-26-33-46l33-7c5 56 141 63 141-1 0-78-155-14-162-118-5-82 145-84 179-34 5 7 8 16 11 25" id="P"/><g id="i"><use transform="matrix(0.1111111111111111,0,0,0.1111111111111111,0,0)" xlink:href="#P"/><use transform="matrix(0.1111111111111111,0,0,0.1111111111111111,26.666666666666664,0)" xlink:href="#w"/><use transform="matrix(0.1111111111111111,0,0,0.1111111111111111,37.77777777777777,0)" xlink:href="#v"/><use transform="matrix(0.1111111111111111,0,0,0.1111111111111111,50.99999999999999,0)" xlink:href="#C"/><use transform="matrix(0.1111111111111111,0,0,0.1111111111111111,73.22222222222221,0)" xlink:href="#y"/><use transform="matrix(0.1111111111111111,0,0,0.1111111111111111,93.22222222222221,0)" xlink:href="#y"/></g><g id="j"><use transform="matrix(0.1111111111111111,0,0,0.1111111111111111,0,0)" xlink:href="#N"/><use transform="matrix(0.1111111111111111,0,0,0.1111111111111111,28.777777777777775,0)" xlink:href="#C"/><use transform="matrix(0.1111111111111111,0,0,0.1111111111111111,51,0)" xlink:href="#y"/><use transform="matrix(0.1111111111111111,0,0,0.1111111111111111,71,0)" xlink:href="#K"/><use transform="matrix(0.1111111111111111,0,0,0.1111111111111111,93.22222222222223,0)" xlink:href="#u"/><use transform="matrix(0.1111111111111111,0,0,0.1111111111111111,115.44444444444446,0)" xlink:href="#D"/><use transform="matrix(0.1111111111111111,0,0,0.1111111111111111,137.66666666666669,0)" xlink:href="#y"/><use transform="matrix(0.1111111111111111,0,0,0.1111111111111111,157.66666666666669,0)" xlink:href="#C"/></g><g id="k"><use transform="matrix(0.1111111111111111,0,0,0.1111111111111111,0,0)" xlink:href="#P"/><use transform="matrix(0.1111111111111111,0,0,0.1111111111111111,26.666666666666664,0)" xlink:href="#I"/><use transform="matrix(0.1111111111111111,0,0,0.1111111111111111,46.666666666666664,0)" xlink:href="#y"/><use transform="matrix(0.1111111111111111,0,0,0.1111111111111111,66.66666666666666,0)" xlink:href="#w"/><use transform="matrix(0.1111111111111111,0,0,0.1111111111111111,77.77777777777777,0)" xlink:href="#C"/><use transform="matrix(0.1111111111111111,0,0,0.1111111111111111,100,0)" xlink:href="#M"/></g><path fill="#23373b" d="M96-169c-40 0-48 33-48 73s9 75 48 75c24 0 41-14 43-38l32 2c-6 37-31 61-74 61-59 0-76-41-82-99-10-93 101-131 147-64 4 7 5 14 7 22l-32 3c-4-21-16-35-41-35" id="Q"/><g id="l"><use transform="matrix(0.1111111111111111,0,0,0.1111111111111111,0,0)" xlink:href="#A"/><use transform="matrix(0.1111111111111111,0,0,0.1111111111111111,26.666666666666664,0)" xlink:href="#H"/><use transform="matrix(0.1111111111111111,0,0,0.1111111111111111,48.888888888888886,0)" xlink:href="#w"/><use transform="matrix(0.1111111111111111,0,0,0.1111111111111111,60,0)" xlink:href="#u"/><use transform="matrix(0.1111111111111111,0,0,0.1111111111111111,82.22222222222223,0)" xlink:href="#D"/><use transform="matrix(0.1111111111111111,0,0,0.1111111111111111,104.44444444444446,0)" xlink:href="#u"/><use transform="matrix(0.1111111111111111,0,0,0.1111111111111111,126.66666666666669,0)" xlink:href="#M"/><use transform="matrix(0.1111111111111111,0,0,0.1111111111111111,159.8888888888889,0)" xlink:href="#x"/><use transform="matrix(0.1111111111111111,0,0,0.1111111111111111,168.66666666666669,0)" xlink:href="#Q"/></g><path fill="#23373b" d="M190 0L58-211 59 0H30v-248h39L202-35l-2-213h31V0h-41" id="R"/><path fill="#23373b" d="M108 0H70L1-190h34L89-25l56-165h34" id="S"/><g id="m"><use transform="matrix(0.1111111111111111,0,0,0.1111111111111111,0,0)" xlink:href="#R"/><use transform="matrix(0.1111111111111111,0,0,0.1111111111111111,28.777777777777775,0)" xlink:href="#C"/><use transform="matrix(0.1111111111111111,0,0,0.1111111111111111,51,0)" xlink:href="#v"/><use transform="matrix(0.1111111111111111,0,0,0.1111111111111111,64.22222222222223,0)" xlink:href="#S"/><use transform="matrix(0.1111111111111111,0,0,0.1111111111111111,84.22222222222223,0)" xlink:href="#u"/><use transform="matrix(0.1111111111111111,0,0,0.1111111111111111,106.44444444444446,0)" xlink:href="#H"/><use transform="matrix(0.1111111111111111,0,0,0.1111111111111111,128.66666666666669,0)" xlink:href="#y"/></g><g id="n"><use transform="matrix(0.1111111111111111,0,0,0.1111111111111111,0,0)" xlink:href="#J"/><use transform="matrix(0.1111111111111111,0,0,0.1111111111111111,28.777777777777775,0)" xlink:href="#I"/><use transform="matrix(0.1111111111111111,0,0,0.1111111111111111,48.77777777777777,0)" xlink:href="#K"/><use transform="matrix(0.1111111111111111,0,0,0.1111111111111111,71,0)" xlink:href="#u"/><use transform="matrix(0.1111111111111111,0,0,0.1111111111111111,93.22222222222223,0)" xlink:href="#w"/><use transform="matrix(0.1111111111111111,0,0,0.1111111111111111,104.33333333333334,0)" xlink:href="#L"/><use transform="matrix(0.1111111111111111,0,0,0.1111111111111111,126.55555555555557,0)" xlink:href="#E"/><use transform="matrix(0.1111111111111111,0,0,0.1111111111111111,148.7777777777778,0)" xlink:href="#z"/><use transform="matrix(0.1111111111111111,0,0,0.1111111111111111,157.55555555555557,0)" xlink:href="#E"/><use transform="matrix(0.1111111111111111,0,0,0.1111111111111111,179.7777777777778,0)" xlink:href="#M"/><use transform="matrix(0.1111111111111111,0,0,0.1111111111111111,213.00000000000003,0)" xlink:href="#x"/><use transform="matrix(0.1111111111111111,0,0,0.1111111111111111,221.7777777777778,0)" xlink:href="#Q"/></g><g id="o"><use transform="matrix(0.1111111111111111,0,0,0.1111111111111111,0,0)" xlink:href="#G"/><use transform="matrix(0.1111111111111111,0,0,0.1111111111111111,26.666666666666664,0)" xlink:href="#x"/><use transform="matrix(0.1111111111111111,0,0,0.1111111111111111,35.44444444444444,0)" xlink:href="#w"/><use transform="matrix(0.1111111111111111,0,0,0.1111111111111111,46.55555555555556,0)" xlink:href="#H"/><use transform="matrix(0.1111111111111111,0,0,0.1111111111111111,68.77777777777777,0)" xlink:href="#x"/><use transform="matrix(0.1111111111111111,0,0,0.1111111111111111,77.55555555555554,0)" xlink:href="#w"/><use transform="matrix(0.1111111111111111,0,0,0.1111111111111111,88.66666666666666,0)" xlink:href="#E"/><use transform="matrix(0.1111111111111111,0,0,0.1111111111111111,110.88888888888889,0)" xlink:href="#v"/><use transform="matrix(0.1111111111111111,0,0,0.1111111111111111,124.1111111111111,0)" xlink:href="#I"/></g><g id="p"><use transform="matrix(0.1111111111111111,0,0,0.1111111111111111,0,0)" xlink:href="#A"/><use transform="matrix(0.1111111111111111,0,0,0.1111111111111111,26.666666666666664,0)" xlink:href="#B"/><use transform="matrix(0.1111111111111111,0,0,0.1111111111111111,48.888888888888886,0)" xlink:href="#v"/><use transform="matrix(0.1111111111111111,0,0,0.1111111111111111,62.11111111111111,0)" xlink:href="#C"/><use transform="matrix(0.1111111111111111,0,0,0.1111111111111111,84.33333333333333,0)" xlink:href="#D"/><use transform="matrix(0.1111111111111111,0,0,0.1111111111111111,106.55555555555554,0)" xlink:href="#E"/><use transform="matrix(0.1111111111111111,0,0,0.1111111111111111,128.77777777777777,0)" xlink:href="#z"/></g><g id="q"><use transform="matrix(0.1111111111111111,0,0,0.1111111111111111,0,0)" xlink:href="#A"/><use transform="matrix(0.1111111111111111,0,0,0.1111111111111111,26.666666666666664,0)" xlink:href="#F"/><use transform="matrix(0.1111111111111111,0,0,0.1111111111111111,46.666666666666664,0)" xlink:href="#x"/><use transform="matrix(0.1111111111111111,0,0,0.1111111111111111,55.44444444444444,0)" xlink:href="#y"/></g><g id="r"><use transform="matrix(0.1111111111111111,0,0,0.1111111111111111,0,0)" xlink:href="#P"/><use transform="matrix(0.1111111111111111,0,0,0.1111111111111111,26.666666666666664,0)" xlink:href="#R"/><use transform="matrix(0.1111111111111111,0,0,0.1111111111111111,55.44444444444444,0)" xlink:href="#P"/></g><g id="s"><use transform="matrix(0.1111111111111111,0,0,0.1111111111111111,0,0)" xlink:href="#G"/><use transform="matrix(0.1111111111111111,0,0,0.1111111111111111,26.666666666666664,0)" xlink:href="#R"/><use transform="matrix(0.1111111111111111,0,0,0.1111111111111111,55.44444444444444,0)" xlink:href="#P"/></g></defs></g></svg>